<?xml version="1.0" encoding="utf-8"?>
<!-- Generator: Adobe Illustrator 19.2.1, SVG Export Plug-In . SVG Version: 6.00 Build 0)  -->
<svg version="1.1" id="layer" xmlns="http://www.w3.org/2000/svg" xmlns:xlink="http://www.w3.org/1999/xlink" x="0px" y="0px"
	 viewBox="0 0 652 652" style="enable-background:new 0 0 652 652;" xml:space="preserve">
<style type="text/css">
	.st0{fill:#128CCC;}
	.st1{fill:#213B75;}
</style>
<polygon class="st0" points="168.7,303.3 204.3,270.1 284.5,270.1 216.6,333.2 "/>
<path class="st1" d="M310.4,269.8H393v25h-54v17.3h48.9V336H339v37h-28.5V269.8z M458.8,375.1c9.4,0,17.8-1.4,25.3-5.1
	c7.5-3,13.8-7,19.4-11.5v-46.5h-47.5V333h20.4v12.6c-4.4,2.8-9.8,4.2-16.6,4.2c-4,0-7.7-0.7-11.2-2.1c-3.5-1.4-6.3-3.3-8.9-5.9
	c-2.6-2.6-4.4-5.6-5.8-9.1c-1.4-3.5-2.1-7.3-2.1-11.5v-0.2c0-4,0.7-7.5,2.1-11c1.4-3.3,3.3-6.3,5.6-8.9c2.3-2.6,5.1-4.7,8.4-6.1
	c3-1.4,6.6-2.1,10.3-2.1c5.1,0,9.6,0.9,13.6,2.6c4,1.6,7.7,4.2,11.5,7.2l16.8-20.1c-5.6-4.7-11.7-8.4-18.2-11
	c-6.5-2.6-14.5-4-23.6-4c-8,0-15.4,1.4-22.2,4.2c-6.8,2.8-12.6,6.5-17.5,11.5c-4.9,4.9-8.7,10.5-11.5,17.1
	c-2.8,6.6-4.2,13.6-4.2,21.1v0.2c0,7.7,1.4,15,4.2,21.5c2.8,6.6,6.8,12.2,11.7,16.8c4.9,4.7,11,8.4,17.8,11
	C443.3,373.7,450.8,375.1,458.8,375.1 M553,373.2h26.2l42.1-103.4H590l-23.4,65.3l-23.4-65.3h-32L553,373.2z M110.9,373.2h82.6
	l-89.8-103.2H21.3L110.9,373.2z"/>
</svg>
